<?xml version="1.0" standalone="no"?>
<!DOCTYPE svg PUBLIC "-//W3C//DTD SVG 20010904//EN"
 "http://www.w3.org/TR/2001/REC-SVG-20010904/DTD/svg10.dtd">
<svg version="1.0" xmlns="http://www.w3.org/2000/svg"
 width="797.000000pt" height="797.000000pt" viewBox="0 0 797.000000 797.000000"
 preserveAspectRatio="xMidYMid meet">
<metadata>
Created by potrace 1.11, written by Peter Selinger 2001-2013
</metadata>
<g transform="translate(0.000000,797.000000) scale(0.100000,-0.100000)"
fill="#000000" stroke="none">
<path d="M3037 7103 c3 -75 3 -120 1 -246 -1 -70 1 -130 4 -133 4 -3 3 -18 -2
-32 -4 -15 -3 -37 1 -50 5 -12 5 -22 1 -22 -4 0 -6 -17 -4 -37 4 -44 4 -48 0
-176 -2 -53 0 -97 4 -97 4 0 3 -13 -2 -30 -5 -18 -5 -32 1 -36 5 -3 7 -10 3
-15 -9 -14 -11 -79 -3 -79 4 0 3 -15 -1 -34 -4 -18 -3 -41 2 -50 6 -10 5 -16
-1 -16 -6 0 -6 -11 -1 -30 5 -16 5 -30 2 -30 -4 0 -6 -17 -4 -37 1 -21 3 -44
2 -50 0 -7 -1 -42 -1 -77 -1 -34 1 -68 5 -74 3 -6 2 -13 -3 -16 -6 -4 -6 -18
-1 -36 5 -17 5 -30 2 -30 -4 0 -6 -17 -4 -37 1 -21 3 -44 2 -50 0 -7 -1 -42
-1 -77 -1 -34 1 -68 5 -74 3 -6 2 -13 -3 -16 -6 -4 -6 -18 -1 -36 5 -17 5 -30
2 -30 -4 0 -6 -17 -4 -37 1 -21 3 -44 2 -50 0 -7 -1 -42 -1 -77 -1 -34 1 -68
5 -74 3 -6 2 -13 -3 -16 -6 -4 -6 -18 -1 -36 5 -17 5 -30 2 -30 -4 0 -6 -17
-4 -37 1 -21 3 -44 2 -50 -2 -97 -2 -140 0 -148 1 -5 1 -12 0 -15 -5 -14 -4
-70 2 -70 4 0 3 -13 -2 -30 -5 -18 -5 -32 1 -36 5 -3 7 -10 3 -15 -9 -14 -11
-79 -3 -79 4 0 3 -15 -1 -34 -4 -19 -4 -40 0 -47 5 -7 6 -22 3 -33 -7 -30 -7
-265 -1 -272 4 -3 3 -18 -2 -32 -4 -15 -3 -37 1 -50 5 -12 5 -22 1 -22 -4 0
-6 -17 -4 -37 4 -44 4 -48 0 -176 -2 -53 0 -97 4 -97 4 0 3 -13 -2 -30 -5 -18
-5 -32 1 -36 5 -3 7 -10 3 -15 -9 -14 -11 -79 -3 -79 4 0 3 -15 -1 -34 -4 -18
-3 -41 2 -50 6 -10 5 -16 -1 -16 -6 0 -6 -11 -1 -30 5 -16 5 -30 2 -30 -4 0
-6 -17 -4 -37 1 -21 3 -44 2 -50 -2 -97 -2 -140 0 -148 1 -5 1 -14 0 -20 -2
-12 -1 -120 3 -160 1 -16 -1 -40 -5 -52 -4 -13 -3 -23 2 -23 5 0 5 -12 0 -30
-5 -18 -5 -32 1 -36 5 -3 7 -10 3 -15 -3 -5 -7 -35 -10 -67 -4 -63 -12 -131
-19 -177 -3 -16 -7 -42 -9 -57 -23 -143 -109 -345 -190 -443 -38 -47 -57 -65
-130 -129 -54 -46 -209 -113 -305 -131 -9 -2 -16 -4 -16 -5 0 -4 -199 -22
-230 -22 -403 10 -651 159 -788 475 -41 95 -55 142 -92 310 -3 12 -7 45 -9 72
-3 28 -7 57 -10 65 -3 8 -8 60 -10 115 l-4 100 -611 1 -611 1 5 -106 c3 -58 7
-117 10 -131 3 -14 7 -47 10 -75 2 -27 6 -59 8 -70 3 -11 7 -36 11 -55 54
-300 141 -534 296 -799 74 -127 203 -280 341 -407 46 -41 210 -165 229 -172 8
-3 22 -11 31 -18 21 -18 243 -128 299 -149 119 -43 262 -85 341 -100 212 -42
309 -50 569 -50 195 1 310 7 379 20 10 2 36 6 57 9 22 3 50 8 64 11 14 2 36 7
50 9 20 4 179 44 235 60 13 4 28 10 140 53 93 35 288 134 316 159 8 8 19 14
23 14 4 0 12 5 19 10 7 6 44 34 82 62 72 54 266 241 300 291 11 16 28 38 39
50 67 79 187 295 242 437 37 96 90 268 100 325 3 16 9 46 14 65 4 19 12 60 15
90 4 30 9 64 11 75 13 68 25 238 26 367 l0 107 84 3 c45 2 99 0 118 -3 20 -3
36 -3 36 1 0 3 19 5 43 3 94 -7 117 -8 117 -2 0 3 19 4 43 2 59 -5 50 -5 182
-4 204 2 219 2 227 7 4 3 8 0 8 -6 0 -6 5 -8 11 -5 9 6 179 10 204 5 6 -1 15
-1 20 0 6 1 64 3 130 5 173 6 352 19 515 40 30 4 66 8 80 10 26 3 77 12 120
20 14 3 39 7 55 10 17 2 41 7 55 10 14 3 45 10 70 15 25 5 79 18 120 30 41 11
86 23 100 26 118 26 467 175 524 223 10 9 20 15 22 13 2 -1 39 21 82 49 156
105 266 207 392 365 26 33 90 132 127 197 67 119 160 381 178 506 12 76 15 98
20 121 26 126 25 591 0 760 -3 19 -8 58 -11 85 -3 28 -8 54 -11 58 -3 5 -7 23
-9 40 -9 60 -67 262 -96 332 -16 39 -34 84 -40 100 -6 17 -14 32 -17 35 -3 3
-18 29 -33 58 -37 71 -62 116 -68 122 -3 3 -28 36 -55 74 -46 65 -189 217
-264 278 -18 15 -67 50 -109 78 -43 28 -81 54 -87 58 -37 29 -327 162 -385
177 -3 0 -43 13 -90 27 -47 14 -98 29 -115 34 -16 4 -34 8 -40 10 -68 18 -177
40 -240 50 -27 4 -57 9 -65 11 -22 4 -77 12 -135 18 -27 3 -68 8 -90 10 -22 2
-71 7 -110 10 -38 4 -97 9 -130 12 -33 3 -656 8 -1385 10 l-1325 4 2 -38z
m2517 -946 c27 -3 76 -9 110 -12 34 -4 75 -9 91 -11 17 -3 41 -7 55 -9 14 -2
36 -7 50 -10 14 -3 36 -8 50 -11 58 -12 171 -50 250 -86 291 -131 473 -394
517 -743 2 -22 6 -53 9 -70 5 -39 5 -271 0 -310 -3 -16 -7 -50 -10 -75 -24
-173 -113 -363 -222 -474 -85 -86 -221 -171 -344 -215 -19 -7 -44 -17 -55 -21
-11 -5 -33 -12 -50 -16 -16 -4 -34 -8 -40 -10 -23 -6 -164 -33 -210 -39 -169
-24 -261 -27 -875 -29 l-595 -1 1 1070 c1 589 2 1072 3 1075 1 7 1199 4 1265
-3z"/>
</g>
</svg>
